#N canvas 832 23 603 615 10;
#X msg 186 399 44 32;
#X text 185 379 space and comma;
#X obj 22 179 cyclone/sprintf print [%s;
#X obj 415 180 cyclone/sprintf print %s];
#X obj 56 401 any;
#X obj 400 399 any;
#X obj 56 471 outlet;
#X obj 22 221 t b b b a;
#X obj 22 103 unpack s f;
#X obj 22 31 inlet;
#X connect 0 0 6 0;
#X connect 2 0 7 0;
#X connect 3 0 5 1;
#X connect 4 0 6 0;
#X connect 5 0 6 0;
#X connect 7 0 5 0;
#X connect 7 1 0 0;
#X connect 7 2 4 0;
#X connect 7 3 4 1;
#X connect 8 0 2 0;
#X connect 8 1 3 0;
#X connect 9 0 8 0;
