#N canvas 204 51 1562 844 10;
#X obj 424 549 print ERROR;
#X obj 313 500 convert.ascii2pd CR;
#N canvas 712 205 905 623 in&out 0;
#X obj 114 116 list-extend;
#X obj 191 77 sel 10;
#X msg 191 185 45 48 46 49 50 53 13;
#X obj 190 157 prepend set;
#X obj 193 236 gate;
#X msg 126 209 0;
#X msg 160 207 1;
#X obj 116 30 inlet;
#X obj 198 268 outlet;
#X obj 87 80 route 10;
#X connect 0 0 3 0;
#X connect 1 0 0 1;
#X connect 1 0 6 0;
#X connect 1 0 2 0;
#X connect 1 1 5 0;
#X connect 2 0 4 1;
#X connect 3 0 2 0;
#X connect 4 0 8 0;
#X connect 5 0 4 0;
#X connect 6 0 4 0;
#X connect 7 0 1 0;
#X connect 7 0 9 0;
#X connect 9 1 0 0;
#X restore 313 463 pd in&out;
#X msg 313 352 devices;
#X text 366 353 < Click me to see what is connected to serial port
;
#X text 100 33 NOTE: You need to have the file convert.ascii2pd.pd
in the same folder as this patch;
#X obj 313 428 comport 5 9600;
#X floatatom 216 597 5 0 0 0 - - -;
#X obj 362 796 netsend -u -b;
#X msg 380 754 disconnect;
#X obj 362 837 tgl 15 0 empty empty 1=connected 20 8 0 8 -262144 -1
-1 0 1;
#X obj 216 760 prepend send;
#X obj 216 670 prepend /angle;
#X obj 216 698 packOSC;
#X text 412 434 Leave 9600 as baudrate;
#X text 98 15 Adatpted from Arduino 2 Pd - communication protocol by
recyclism, f 68;
#X text 99 64 Main Pure Data Patch Multisensory Interactive System
- Federico Macchi | Nicola Baratella, f 91;
#X text 276 317 Feedforward channel \; from Teensy 3.6 to Processing
\, via USB Serial and OSC Messages, f 68;
#X text 539 723 < Click me to connect to Processing;
#X text 447 796 "Active" if the connection is successfull;
#X text 316 671 Prepare the message so that Processing can understand
it;
#X text 99 102 Feedback channel \; from PD to Teensy 3.6 \, via USB
Serial, f 41;
#X obj 216 640 *;
#X msg 314 597 0.0174533;
#X text 312 579 PI / 180 for the conversion to radians;
#X text 384 598 CLICK ME BEFORE CONNECTING!;
#X obj 101 173 unpackOSC;
#X obj 101 142 netreceive -u -b 7778;
#X obj 101 236 routeOSC /motor;
#X msg 365 401 close;
#X msg 364 377 open 5;
#X text 411 422 < change the number "5" to the comport used by Teensy
;
#X msg 362 722 connect 127.0.0.1 7777;
#X msg 131 317 set print \$1;
#X obj 131 284 list;
#X msg 101 364 print [motor.0], f 24;
#X obj 101 299 bng 15 250 50 0 empty empty empty 17 7 0 10 -262144
-1 -1;
#X obj 49 467 cnv 15 200 60 empty empty empty 20 12 0 14 -260097 -262144
0;
#X msg 75 497 print [motor.0], f 24;
#X text 74 477 EMERGENCY STOP FOR MOTORS, f 26;
#X connect 1 0 7 0;
#X connect 1 2 0 0;
#X connect 2 0 1 0;
#X connect 3 0 6 0;
#X connect 6 0 2 0;
#X connect 7 0 22 0;
#X connect 8 0 10 0;
#X connect 9 0 8 0;
#X connect 11 0 8 0;
#X connect 12 0 13 0;
#X connect 13 0 11 0;
#X connect 22 0 12 0;
#X connect 23 0 22 1;
#X connect 26 0 28 0;
#X connect 27 0 26 0;
#X connect 28 0 34 0;
#X connect 28 0 36 0;
#X connect 29 0 6 0;
#X connect 30 0 6 0;
#X connect 32 0 8 0;
#X connect 33 0 35 0;
#X connect 34 0 33 0;
#X connect 35 0 6 0;
#X connect 36 0 35 0;
#X connect 38 0 6 0;
