#N canvas 124 23 701 767 10;
#X obj 468 88 osc~ 432;
#X floatatom 468 52 5 0 0 0 - - -;
#X msg 18 22 \; pd dsp 1;
#X msg 18 81 \; pd dsp 0;
#X msg 468 17 216;
#X obj 524 208 vsl 15 128 0 100 0 0 empty empty empty 0 -9 0 10 -261234
-1 -1 0 1;
#X obj 524 353 / 100;
#X obj 18 181 dac~ 1 2;
#X obj 490 539 tgl 30 0 empty empty empty 17 7 0 10 -261234 -1 -1 0
1;
#X text 527 542 on/off;
#X obj 490 487 loadbang;
#X msg 490 513 0;
#X msg 507 17 100;
#X obj 468 725 send~ to_dac;
#X obj 18 148 receive~ to_dac;
#X obj 524 404 line~;
#X obj 524 380 pack 0 50;
#X obj 468 431 *~;
#X obj 490 610 line~;
#X obj 468 638 *~;
#X obj 490 586 pack 0 500;
#X obj 524 180 loadbang 50;
#N canvas 0 22 450 300 (subpatch) 0;
#X array oscillator 1000 float 0;
#X coords 0 1 999 -1 200 100 1 0 0;
#X restore 165 563 graph;
#X obj 189 463 tgl 15 1 empty empty empty 0 -6 0 10 -262144 -1 -1 1
1;
#X text 143 650 -1;
#X text 149 605 0;
#X text 149 559 1;
#X text 210 461 Graph output;
#X obj 189 486 metro 100;
#X obj 152 514 tabwrite~ oscillator;
#X text 97 18 <-Click to start DSP;
#X text 97 80 <-Click to stop DSP;
#X connect 0 0 17 0;
#X connect 1 0 0 0;
#X connect 4 0 1 0;
#X connect 5 0 6 0;
#X connect 6 0 16 0;
#X connect 8 0 20 0;
#X connect 10 0 11 0;
#X connect 11 0 8 0;
#X connect 12 0 1 0;
#X connect 14 0 7 0;
#X connect 14 0 7 1;
#X connect 15 0 17 1;
#X connect 16 0 15 0;
#X connect 17 0 19 0;
#X connect 17 0 29 0;
#X connect 18 0 19 1;
#X connect 19 0 13 0;
#X connect 20 0 18 0;
#X connect 21 0 5 0;
#X connect 23 0 28 0;
#X connect 28 0 29 0;
