#N canvas 641 22 860 750 10;
#X floatatom 357 377 5 0 0 0 Frequency_(hz) - -;
#X msg 621 24 \; pd dsp 1;
#X msg 620 58 \; pd dsp 0;
#X msg 423 329 216;
#X obj 621 210 vsl 15 128 0 100 0 0 empty empty empty 0 -9 0 10 -261234
-1 -1 5080 1;
#X obj 621 355 / 100;
#X obj 675 694 dac~ 1 2;
#X obj 622 505 tgl 30 0 empty empty empty 17 7 0 10 -261234 -1 -1 1
1;
#X text 659 508 on/off;
#X obj 622 453 loadbang;
#X msg 462 329 100;
#X obj 446 650 send~ to_dac;
#X obj 675 661 receive~ to_dac;
#X obj 621 406 line~;
#X obj 621 382 pack 0 50;
#X obj 528 451 *~;
#X obj 622 576 line~;
#X obj 600 604 *~;
#X obj 622 552 pack 0 500;
#X text 700 20 <-Click to start DSP;
#X text 699 57 <-Click to stop DSP;
#X obj 189 69 hsl 128 15 0 1200 0 0 empty empty Ball-target_distance
-2 -8 0 10 -262130 -1 -1 0 1;
#X floatatom 299 136 5 0 0 0 - - -;
#X obj 318 170 *;
#X obj 410 224 +;
#X obj 472 132 loadbang;
#X obj 491 407 osc~;
#X msg 472 165 700, f 5;
#X obj 398 195 / 8;
#X text 71 222 Remapping the 0-1200 range to B-A range (eg.550-700)
;
#X msg 623 479 1;
#X obj 397 86 loadbang;
#X msg 395 114 -1;
#X obj 612 131 loadbang;
#X msg 620 170 40;
#X text 50 540 Audio settings for my PC (Windows 10 \, i7) Block size:
64 Sample Frequency: 44100Hz Delay: 50msec;
#X connect 0 0 26 0;
#X connect 3 0 0 0;
#X connect 4 0 5 0;
#X connect 5 0 14 0;
#X connect 7 0 18 0;
#X connect 9 0 30 0;
#X connect 10 0 0 0;
#X connect 12 0 6 0;
#X connect 12 0 6 1;
#X connect 13 0 15 1;
#X connect 14 0 13 0;
#X connect 15 0 17 0;
#X connect 16 0 17 1;
#X connect 17 0 11 0;
#X connect 18 0 16 0;
#X connect 21 0 22 0;
#X connect 22 0 23 0;
#X connect 23 0 28 0;
#X connect 24 0 0 0;
#X connect 25 0 27 0;
#X connect 26 0 15 0;
#X connect 27 0 24 1;
#X connect 28 0 24 0;
#X connect 30 0 7 0;
#X connect 31 0 32 0;
#X connect 32 0 23 1;
#X connect 33 0 34 0;
#X connect 34 0 4 0;
