#N canvas -8 0 958 966 12;
#X obj 322 255 netsend -u -b;
#X msg 382 187 disconnect;
#X floatatom 57 58 5 0 0 0 - - -;
#X obj 321 298 tgl 15 0 empty empty 1=connected 20 8 0 8 -262144 -1
-1 1 1;
#X obj 233 197 prepend send;
#X obj 100 128 prepend /angle;
#X obj 168 308 print;
#X obj 167 255 prepend InputPack:;
#X msg 61 15 30;
#X msg 110 12 45;
#X msg 20 12 14.5;
#X text 108 57 how to make it recognised as a float all the time?;
#X obj 229 157 packOSC;
#X msg 150 15 45;
#X obj 78 94 / 10;
#X text 116 95 scaling down to test for float inputs [REMOVE];
#X msg 379 155 connect 192.168.31.192 7777;
#X msg 212 10 -20;
#X msg 259 15 -15;
#X msg 301 7 0;
#X msg 375 11 90;
#X msg 458 14 -90;
#X connect 0 0 3 0;
#X connect 1 0 0 0;
#X connect 2 0 14 0;
#X connect 4 0 0 0;
#X connect 4 0 7 0;
#X connect 5 0 12 0;
#X connect 7 0 6 0;
#X connect 8 0 2 0;
#X connect 9 0 2 0;
#X connect 10 0 2 0;
#X connect 12 0 4 0;
#X connect 13 0 2 0;
#X connect 14 0 5 0;
#X connect 16 0 0 0;
#X connect 17 0 2 0;
#X connect 18 0 2 0;
#X connect 19 0 2 0;
#X connect 20 0 2 0;
#X connect 21 0 2 0;
